<svg width="747" height="256" viewBox="0 0 747 256" fill="none" xmlns="http://www.w3.org/2000/svg">
<path d="M0 0H256V256H0V0Z" fill="#F7DF1E"/>
<path d="M67.3117 213.932L86.9027 202.076C90.6821 208.777 94.1202 214.447 102.367 214.447C110.272 214.447 115.256 211.355 115.256 199.327V117.529H139.314V199.667C139.314 224.584 124.708 235.926 103.398 235.926C84.1533 235.926 72.9819 225.959 67.3113 213.93" fill="black"/>
<path d="M152.381 211.354L171.969 200.013C177.126 208.434 183.828 214.62 195.684 214.62C205.653 214.62 212.009 209.636 212.009 202.762C212.009 194.514 205.479 191.592 194.481 186.782L188.468 184.203C171.111 176.815 159.597 167.535 159.597 147.945C159.597 129.901 173.345 116.153 194.826 116.153C210.12 116.153 221.118 121.481 229.022 135.4L210.291 147.429C206.166 140.04 201.7 137.119 194.826 137.119C187.78 137.119 183.312 141.587 183.312 147.429C183.312 154.646 187.78 157.568 198.09 162.037L204.104 164.614C224.553 173.379 236.067 182.313 236.067 202.418C236.067 224.072 219.055 235.928 196.2 235.928C173.861 235.928 159.425 225.274 152.381 211.354Z" fill="black"/>
<path d="M273.219 96.1094C271.562 95.1406 270.938 93.9688 271.344 92.5938L273.312 86.1719C273.875 84.3281 275.344 84.1406 277.719 85.6094C279.75 86.8906 282.016 87.5312 284.516 87.5312C287.953 87.5312 290.188 86.3438 291.219 83.9688C292.281 81.5938 292.812 77.6406 292.812 72.1094V33.2969C292.812 30.9531 293.906 29.7812 296.094 29.7812H303.219C305.406 29.7812 306.5 30.9531 306.5 33.2969V71.1719C306.5 82.6719 304.562 90.125 300.688 93.5312C296.844 96.9062 291.5 98.5938 284.656 98.5938C279.875 98.5938 276.062 97.7656 273.219 96.1094Z" fill="black"/>
<path d="M317.188 83.875C317.188 77.625 320.172 73.0938 326.141 70.2812C332.109 67.4688 338.922 65.9688 346.578 65.7812V63.9062C346.578 61.0312 345.859 59 344.422 57.8125C342.984 56.625 340.984 56.0312 338.422 56.0312C336.609 56.0312 335 56.2969 333.594 56.8281C332.219 57.3281 331.016 57.9219 329.984 58.6094C328.984 59.2656 328.078 59.9375 327.266 60.625C325.828 61.875 324.641 61.9375 323.703 60.8125L319.812 56.0312C318.844 54.8438 319.078 53.625 320.516 52.375C321.609 51.4062 322.875 50.5625 324.312 49.8438C325.781 49.125 327.719 48.4531 330.125 47.8281C332.531 47.1719 335.656 46.8438 339.5 46.8438C346 46.8438 350.984 48.3438 354.453 51.3438C357.953 54.3438 359.703 58.7656 359.703 64.6094V94.1875C359.703 96.0625 358.766 97 356.891 97H349.203C347.516 97 346.672 96.0625 346.672 94.1875V92.7812H346.578C344.734 94.5625 342.516 95.875 339.922 96.7188C337.359 97.5312 335 97.9375 332.844 97.9375C327.719 97.9375 323.828 96.6875 321.172 94.1875C318.516 91.6562 317.188 88.2188 317.188 83.875ZM331.062 83.5938C331.062 84.6875 331.281 85.6406 331.719 86.4531C332.156 87.2344 332.844 87.8125 333.781 88.1875C334.719 88.5625 335.766 88.75 336.922 88.75C338.516 88.75 340.062 88.5312 341.562 88.0938C343.062 87.6562 344.734 86.625 346.578 85V74.8281C341.328 75.4219 337.812 76.1875 336.031 77.125C334.25 78.0625 332.969 79.0312 332.188 80.0312C331.438 81.0312 331.062 82.2188 331.062 83.5938Z" fill="black"/>
<path d="M369.266 51.4375C368.484 49 369 47.7812 370.812 47.7812H379.203C380.672 47.7812 381.609 48.5781 382.016 50.1719L389.281 77.6406C389.688 79.1719 390.016 80.6875 390.266 82.1875C390.547 83.6875 390.719 84.9062 390.781 85.8438H391.062C391.125 84.9062 391.281 83.6875 391.531 82.1875C391.812 80.6875 392.156 79.1719 392.562 77.6406L399.828 50.1719C400.234 48.5781 401.172 47.7812 402.641 47.7812H411.031C412.844 47.7812 413.359 49 412.578 51.4375L398.984 93.8594C398.328 95.9531 397.188 97 395.562 97H386.281C384.656 97 383.516 95.9531 382.859 93.8594L369.266 51.4375Z" fill="black"/>
<path d="M417.125 83.875C417.125 77.625 420.109 73.0938 426.078 70.2812C432.047 67.4688 438.859 65.9688 446.516 65.7812V63.9062C446.516 61.0312 445.797 59 444.359 57.8125C442.922 56.625 440.922 56.0312 438.359 56.0312C436.547 56.0312 434.938 56.2969 433.531 56.8281C432.156 57.3281 430.953 57.9219 429.922 58.6094C428.922 59.2656 428.016 59.9375 427.203 60.625C425.766 61.875 424.578 61.9375 423.641 60.8125L419.75 56.0312C418.781 54.8438 419.016 53.625 420.453 52.375C421.547 51.4062 422.812 50.5625 424.25 49.8438C425.719 49.125 427.656 48.4531 430.062 47.8281C432.469 47.1719 435.594 46.8438 439.438 46.8438C445.938 46.8438 450.922 48.3438 454.391 51.3438C457.891 54.3438 459.641 58.7656 459.641 64.6094V94.1875C459.641 96.0625 458.703 97 456.828 97H449.141C447.453 97 446.609 96.0625 446.609 94.1875V92.7812H446.516C444.672 94.5625 442.453 95.875 439.859 96.7188C437.297 97.5312 434.938 97.9375 432.781 97.9375C427.656 97.9375 423.766 96.6875 421.109 94.1875C418.453 91.6562 417.125 88.2188 417.125 83.875ZM431 83.5938C431 84.6875 431.219 85.6406 431.656 86.4531C432.094 87.2344 432.781 87.8125 433.719 88.1875C434.656 88.5625 435.703 88.75 436.859 88.75C438.453 88.75 440 88.5312 441.5 88.0938C443 87.6562 444.672 86.625 446.516 85V74.8281C441.266 75.4219 437.75 76.1875 435.969 77.125C434.188 78.0625 432.906 79.0312 432.125 80.0312C431.375 81.0312 431 82.2188 431 83.5938Z" fill="black"/>
<path d="M474.359 91.9844C472.422 90.5156 471.953 89.0312 472.953 87.5312L476.562 82.0938C477.75 80.3125 479.484 80.2188 481.766 81.8125C483.516 83.0312 485.797 84.2969 488.609 85.6094C491.453 86.8906 494.438 87.5312 497.562 87.5312C499.75 87.5312 501.859 87.2812 503.891 86.7812C505.922 86.2812 507.469 85.3125 508.531 83.875C509.594 82.4375 510.125 80.7344 510.125 78.7656C510.125 77.3594 509.891 76.125 509.422 75.0625C508.953 74 508.188 73.125 507.125 72.4375C506.062 71.75 504.969 71.1719 503.844 70.7031C501.875 69.8906 499.391 69.0938 496.391 68.3125C493.422 67.5 490.484 66.5312 487.578 65.4062C484.984 64.4062 482.609 63.0312 480.453 61.2812C478.297 59.5312 476.625 57.5625 475.438 55.375C474.25 53.1875 473.656 50.2656 473.656 46.6094C473.656 42.2656 475.062 38.5469 477.875 35.4531C480.688 32.3594 483.922 30.375 487.578 29.5C491.234 28.625 494.922 28.1875 498.641 28.1875C502.328 28.1875 506.125 28.75 510.031 29.875C513.969 31 516.938 32.4062 518.938 34.0938C520.906 35.75 521.391 37.25 520.391 38.5938L516.594 43.7031C515.312 45.4531 513.594 45.5938 511.438 44.125C510.062 43.1875 508.172 42.1406 505.766 40.9844C503.391 39.8281 500.906 39.25 498.312 39.25C496.469 39.25 494.766 39.4062 493.203 39.7188C491.672 40.0312 490.312 40.7812 489.125 41.9688C487.938 43.1562 487.344 44.625 487.344 46.375C487.344 48.0625 487.781 49.4375 488.656 50.5C489.531 51.5312 490.5 52.3125 491.562 52.8438C492.625 53.3438 493.703 53.7656 494.797 54.1094C498.172 55.2031 501.188 56.1719 503.844 57.0156C506.5 57.8281 508.953 58.7344 511.203 59.7344C514.328 61.1406 516.719 62.5469 518.375 63.9531C520.031 65.3594 521.391 67.2812 522.453 69.7188C523.547 72.1562 524.094 75.0625 524.094 78.4375C524.094 83.4375 522.5 87.5781 519.312 90.8594C516.125 94.1094 512.578 96.2031 508.672 97.1406C504.797 98.1094 501.016 98.5938 497.328 98.5938C491.891 98.5938 487.469 98.0625 484.062 97C480.656 95.9688 477.422 94.2969 474.359 91.9844Z" fill="black"/>
<path d="M531.125 72.3906C531.125 64.4219 533.125 58.1719 537.125 53.6406C541.125 49.1094 547.266 46.8438 555.547 46.8438C560.391 46.8438 564.156 47.4844 566.844 48.7656C569.531 50.0469 571.688 51.9219 573.312 54.3906C574.281 55.8594 574.125 57.0156 572.844 57.8594L567.875 61.1406C566.469 62.0781 565.234 61.7188 564.172 60.0625C563.641 59.25 562.625 58.375 561.125 57.4375C559.625 56.5 557.766 56.0312 555.547 56.0312C552.016 56.0312 549.375 57.2812 547.625 59.7812C545.875 62.25 545 66.4531 545 72.3906C545 78.3281 545.875 82.5469 547.625 85.0469C549.375 87.5156 552.016 88.75 555.547 88.75C558.078 88.75 560.125 88.2188 561.688 87.1562C563.25 86.0938 564.719 84.7188 566.094 83.0312C567.281 81.5938 568.531 81.3906 569.844 82.4219L574.203 85.8438C575.516 86.875 575.594 88.25 574.438 89.9688C573.219 91.7812 571.141 93.5625 568.203 95.3125C565.297 97.0625 561.078 97.9375 555.547 97.9375C547.266 97.9375 541.125 95.6719 537.125 91.1406C533.125 86.6094 531.125 80.3594 531.125 72.3906Z" fill="black"/>
<path d="M587.469 97C585.594 97 584.656 96.0625 584.656 94.1875V50.5938C584.656 48.7188 585.594 47.7812 587.469 47.7812H594.875C596.75 47.7812 597.688 48.7188 597.688 50.5938V54.4375H597.875C598.688 52.4375 600.047 50.6719 601.953 49.1406C603.859 47.6094 606.109 46.8438 608.703 46.8438C610.484 46.8438 611.953 47.0625 613.109 47.5C614.203 47.9062 614.625 48.6562 614.375 49.75L613.062 55.3281C612.781 56.5781 611.938 56.9531 610.531 56.4531C609.719 56.1719 608.938 56.0312 608.188 56.0312C605.188 56.0312 602.703 57.8281 600.734 61.4219C598.766 65.0156 597.781 70.25 597.781 77.125V94.1875C597.781 96.0625 596.844 97 594.969 97H587.469Z" fill="black"/>
<path d="M624.312 97C622.438 97 621.5 96.0625 621.5 94.1875V50.5938C621.5 48.7188 622.438 47.7812 624.312 47.7812H631.812C633.688 47.7812 634.625 48.7188 634.625 50.5938V94.1875C634.625 96.0625 633.688 97 631.812 97H624.312ZM624.312 40.5625C622.438 40.5625 621.5 39.625 621.5 37.75V31.75C621.5 29.875 622.438 28.9375 624.312 28.9375H631.812C633.688 28.9375 634.625 29.875 634.625 31.75V37.75C634.625 39.625 633.688 40.5625 631.812 40.5625H624.312Z" fill="black"/>
<path d="M650.188 115.75C648.312 115.75 647.375 114.812 647.375 112.938V50.5938C647.375 48.7188 648.312 47.7812 650.188 47.7812H657.594C659.156 47.7812 660 48.7188 660.125 50.5938L660.312 53.3125H660.5C662.125 50.625 663.938 48.875 665.938 48.0625C667.938 47.25 670.344 46.8438 673.156 46.8438C680.5 46.8438 685.656 49.3906 688.625 54.4844C691.625 59.5469 693.125 65.5156 693.125 72.3906C693.125 79.2656 691.625 85.25 688.625 90.3438C685.656 95.4062 680.5 97.9375 673.156 97.9375C670.344 97.9375 667.938 97.5312 665.938 96.7188C663.938 95.9062 662.125 94.1562 660.5 91.4688H660.312C660.438 92.7188 660.5 93.9688 660.5 95.2188V112.938C660.5 114.812 659.562 115.75 657.688 115.75H650.188ZM660.5 74.5C660.5 78.7188 661.328 82.1562 662.984 84.8125C664.672 87.4375 666.688 88.75 669.031 88.75C673.25 88.75 676 87.2812 677.281 84.3438C678.594 81.375 679.25 77.3906 679.25 72.3906C679.25 67.3906 678.594 63.4219 677.281 60.4844C676 57.5156 673.25 56.0312 669.031 56.0312C666.688 56.0312 664.672 57.3594 662.984 60.0156C661.328 62.6406 660.5 66.0625 660.5 70.2812V74.5Z" fill="black"/>
<path d="M701.609 57.1562C699.766 57.1562 698.844 56.375 698.844 54.8125V50.125C698.844 48.5625 699.766 47.7812 701.609 47.7812H704.797V46.1406C704.797 44.7344 705.125 43.4531 705.781 42.2969L709.391 35.9688C710.078 34.7812 710.891 34.1875 711.828 34.1875H715.109C716.984 34.1875 717.922 35.125 717.922 37V47.7812H725.516C727.359 47.7812 728.281 48.5625 728.281 50.125V54.8125C728.281 56.375 727.359 57.1562 725.516 57.1562H717.922V80.4062C717.922 83.5938 718.141 85.8906 718.578 87.2969C719.047 88.6719 720.234 89.3594 722.141 89.3594C723.109 89.3594 724.203 89.2031 725.422 88.8906C726.641 88.5469 727.594 88.2188 728.281 87.9062C729.375 87.4062 730.094 87.7656 730.438 88.9844L731.844 94.3281C732.125 95.3906 731.719 96.1719 730.625 96.6719C729.594 97.1406 728.172 97.5625 726.359 97.9375C724.578 98.3438 722.781 98.5469 720.969 98.5469C716.5 98.5469 712.688 97.625 709.531 95.7812C706.375 93.9375 704.797 90.1406 704.797 84.3906V57.1562H701.609Z" fill="black"/>
<path d="M279.781 235C277.594 235 276.5 233.828 276.5 231.484V171.297C276.5 168.953 277.594 167.781 279.781 167.781H287.375C289.25 167.781 290.188 168.953 290.188 171.297V223.375H317.516C319.859 223.375 321.031 224.391 321.031 226.422V231.953C321.031 233.984 319.859 235 317.516 235H279.781Z" fill="black"/>
<path d="M327.219 221.875C327.219 215.625 330.203 211.094 336.172 208.281C342.141 205.469 348.953 203.969 356.609 203.781V201.906C356.609 199.031 355.891 197 354.453 195.812C353.016 194.625 351.016 194.031 348.453 194.031C346.641 194.031 345.031 194.297 343.625 194.828C342.25 195.328 341.047 195.922 340.016 196.609C339.016 197.266 338.109 197.938 337.297 198.625C335.859 199.875 334.672 199.938 333.734 198.812L329.844 194.031C328.875 192.844 329.109 191.625 330.547 190.375C331.641 189.406 332.906 188.562 334.344 187.844C335.812 187.125 337.75 186.453 340.156 185.828C342.562 185.172 345.688 184.844 349.531 184.844C356.031 184.844 361.016 186.344 364.484 189.344C367.984 192.344 369.734 196.766 369.734 202.609V232.188C369.734 234.062 368.797 235 366.922 235H359.234C357.547 235 356.703 234.062 356.703 232.188V230.781H356.609C354.766 232.562 352.547 233.875 349.953 234.719C347.391 235.531 345.031 235.938 342.875 235.938C337.75 235.938 333.859 234.688 331.203 232.188C328.547 229.656 327.219 226.219 327.219 221.875ZM341.094 221.594C341.094 222.688 341.312 223.641 341.75 224.453C342.188 225.234 342.875 225.812 343.812 226.188C344.75 226.562 345.797 226.75 346.953 226.75C348.547 226.75 350.094 226.531 351.594 226.094C353.094 225.656 354.766 224.625 356.609 223V212.828C351.359 213.422 347.844 214.188 346.062 215.125C344.281 216.062 343 217.031 342.219 218.031C341.469 219.031 341.094 220.219 341.094 221.594Z" fill="black"/>
<path d="M385.344 235C383.469 235 382.531 234.062 382.531 232.188V188.594C382.531 186.719 383.469 185.781 385.344 185.781H392.75C394.625 185.781 395.562 186.719 395.562 188.594V191.312H395.75C397.188 188.844 399.016 187.156 401.234 186.25C403.453 185.312 406.125 184.844 409.25 184.844C414.125 184.844 418.156 186.375 421.344 189.438C424.531 192.5 426.125 198.094 426.125 206.219V232.188C426.125 234.062 425.188 235 423.312 235H415.812C413.938 235 413 234.062 413 232.188V209.594C413 202.781 412.531 198.484 411.594 196.703C410.656 194.922 408.641 194.031 405.547 194.031C402.266 194.031 399.797 195.312 398.141 197.875C396.484 200.406 395.656 205.688 395.656 213.719V232.188C395.656 234.062 394.719 235 392.844 235H385.344Z" fill="black"/>
<path d="M436.156 210.391C436.156 203.516 437.641 197.547 440.609 192.484C443.609 187.391 448.781 184.844 456.125 184.844C458.938 184.844 461.344 185.25 463.344 186.062C465.344 186.875 467.156 188.625 468.781 191.312H468.969C468.844 190.062 468.781 188.812 468.781 187.562V168.625C468.781 166.75 469.719 165.812 471.594 165.812H479.094C480.969 165.812 481.906 166.75 481.906 168.625V232.188C481.906 234.062 480.969 235 479.094 235H471.688C470.125 235 469.281 234.062 469.156 232.188L468.969 229.469H468.781C467.156 232.156 465.344 233.906 463.344 234.719C461.344 235.531 458.938 235.938 456.125 235.938C448.781 235.938 443.609 233.406 440.609 228.344C437.641 223.25 436.156 217.266 436.156 210.391ZM450.031 210.391C450.031 215.391 450.672 219.375 451.953 222.344C453.266 225.281 456.031 226.75 460.25 226.75C462.594 226.75 464.594 225.438 466.25 222.812C467.938 220.156 468.781 216.719 468.781 212.5V208.281C468.781 204.062 467.938 200.641 466.25 198.016C464.594 195.359 462.594 194.031 460.25 194.031C456.031 194.031 453.266 195.516 451.953 198.484C450.672 201.422 450.031 205.391 450.031 210.391Z" fill="black"/>
<path d="M493.672 231.719C492.141 230.625 491.719 229.453 492.406 228.203L494.797 223.844C495.641 222.281 496.953 222.094 498.734 223.281C500.516 224.469 502.609 225.344 505.016 225.906C507.453 226.469 509.672 226.75 511.672 226.75C513.078 226.75 514.391 226.609 515.609 226.328C516.828 226.047 517.859 225.5 518.703 224.688C519.547 223.875 519.969 222.688 519.969 221.125C519.969 220.188 519.719 219.391 519.219 218.734C518.719 218.078 518.078 217.578 517.297 217.234C516.516 216.891 515.688 216.609 514.812 216.391C513.656 216.109 511.984 215.641 509.797 214.984C507.641 214.328 505.562 213.562 503.562 212.688C501.906 211.969 500.281 210.969 498.688 209.688C497.125 208.375 495.969 206.922 495.219 205.328C494.5 203.734 494.141 201.766 494.141 199.422C494.141 196.266 495.047 193.5 496.859 191.125C498.703 188.75 501.078 187.109 503.984 186.203C506.891 185.297 510.516 184.844 514.859 184.844C517.797 184.844 520.656 185.266 523.438 186.109C526.219 186.953 528.203 187.75 529.391 188.5C531.266 189.688 531.734 190.953 530.797 192.297L527.938 196.469C527.062 197.719 525.656 197.812 523.719 196.75C522.25 195.938 520.797 195.281 519.359 194.781C517.953 194.281 516.375 194.031 514.625 194.031C513.438 194.031 512.297 194.156 511.203 194.406C510.109 194.656 509.172 195.125 508.391 195.812C507.641 196.5 507.266 197.406 507.266 198.531C507.266 199.719 507.609 200.656 508.297 201.344C509.016 202 509.828 202.484 510.734 202.797C511.672 203.109 512.562 203.406 513.406 203.688C515.156 204.25 516.922 204.797 518.703 205.328C520.484 205.828 522.297 206.438 524.141 207.156C525.734 207.781 527.281 208.672 528.781 209.828C530.281 210.984 531.375 212.453 532.062 214.234C532.75 216.016 533.094 218.047 533.094 220.328C533.094 223.359 532.188 226.172 530.375 228.766C528.562 231.359 526.172 233.203 523.203 234.297C520.234 235.391 516.781 235.938 512.844 235.938C508.438 235.938 504.688 235.625 501.594 235C498.5 234.375 495.859 233.281 493.672 231.719Z" fill="black"/>
<path d="M539.188 210.391C539.188 202.422 541.188 196.172 545.188 191.641C549.188 187.109 555.328 184.844 563.609 184.844C568.453 184.844 572.219 185.484 574.906 186.766C577.594 188.047 579.75 189.922 581.375 192.391C582.344 193.859 582.188 195.016 580.906 195.859L575.938 199.141C574.531 200.078 573.297 199.719 572.234 198.062C571.703 197.25 570.688 196.375 569.188 195.438C567.688 194.5 565.828 194.031 563.609 194.031C560.078 194.031 557.438 195.281 555.688 197.781C553.938 200.25 553.062 204.453 553.062 210.391C553.062 216.328 553.938 220.547 555.688 223.047C557.438 225.516 560.078 226.75 563.609 226.75C566.141 226.75 568.188 226.219 569.75 225.156C571.312 224.094 572.781 222.719 574.156 221.031C575.344 219.594 576.594 219.391 577.906 220.422L582.266 223.844C583.578 224.875 583.656 226.25 582.5 227.969C581.281 229.781 579.203 231.562 576.266 233.312C573.359 235.062 569.141 235.938 563.609 235.938C555.328 235.938 549.188 233.672 545.188 229.141C541.188 224.609 539.188 218.359 539.188 210.391Z" fill="black"/>
<path d="M590.094 221.875C590.094 215.625 593.078 211.094 599.047 208.281C605.016 205.469 611.828 203.969 619.484 203.781V201.906C619.484 199.031 618.766 197 617.328 195.812C615.891 194.625 613.891 194.031 611.328 194.031C609.516 194.031 607.906 194.297 606.5 194.828C605.125 195.328 603.922 195.922 602.891 196.609C601.891 197.266 600.984 197.938 600.172 198.625C598.734 199.875 597.547 199.938 596.609 198.812L592.719 194.031C591.75 192.844 591.984 191.625 593.422 190.375C594.516 189.406 595.781 188.562 597.219 187.844C598.688 187.125 600.625 186.453 603.031 185.828C605.438 185.172 608.562 184.844 612.406 184.844C618.906 184.844 623.891 186.344 627.359 189.344C630.859 192.344 632.609 196.766 632.609 202.609V232.188C632.609 234.062 631.672 235 629.797 235H622.109C620.422 235 619.578 234.062 619.578 232.188V230.781H619.484C617.641 232.562 615.422 233.875 612.828 234.719C610.266 235.531 607.906 235.938 605.75 235.938C600.625 235.938 596.734 234.688 594.078 232.188C591.422 229.656 590.094 226.219 590.094 221.875ZM603.969 221.594C603.969 222.688 604.188 223.641 604.625 224.453C605.062 225.234 605.75 225.812 606.688 226.188C607.625 226.562 608.672 226.75 609.828 226.75C611.422 226.75 612.969 226.531 614.469 226.094C615.969 225.656 617.641 224.625 619.484 223V212.828C614.234 213.422 610.719 214.188 608.938 215.125C607.156 216.062 605.875 217.031 605.094 218.031C604.344 219.031 603.969 220.219 603.969 221.594Z" fill="black"/>
<path d="M648.219 253.75C646.344 253.75 645.406 252.812 645.406 250.938V188.594C645.406 186.719 646.344 185.781 648.219 185.781H655.625C657.188 185.781 658.031 186.719 658.156 188.594L658.344 191.312H658.531C660.156 188.625 661.969 186.875 663.969 186.062C665.969 185.25 668.375 184.844 671.188 184.844C678.531 184.844 683.688 187.391 686.656 192.484C689.656 197.547 691.156 203.516 691.156 210.391C691.156 217.266 689.656 223.25 686.656 228.344C683.688 233.406 678.531 235.938 671.188 235.938C668.375 235.938 665.969 235.531 663.969 234.719C661.969 233.906 660.156 232.156 658.531 229.469H658.344C658.469 230.719 658.531 231.969 658.531 233.219V250.938C658.531 252.812 657.594 253.75 655.719 253.75H648.219ZM658.531 212.5C658.531 216.719 659.359 220.156 661.016 222.812C662.703 225.438 664.719 226.75 667.062 226.75C671.281 226.75 674.031 225.281 675.312 222.344C676.625 219.375 677.281 215.391 677.281 210.391C677.281 205.391 676.625 201.422 675.312 198.484C674.031 195.516 671.281 194.031 667.062 194.031C664.719 194.031 662.703 195.359 661.016 198.016C659.359 200.641 658.531 204.062 658.531 208.281V212.5Z" fill="black"/>
<path d="M698.656 210.391C698.656 202.484 700.625 196.25 704.562 191.688C708.531 187.125 714.125 184.844 721.344 184.844C729.719 184.844 735.938 187 740 191.312C744.062 195.625 746.094 202.562 746.094 212.125C746.094 214 745.219 214.938 743.469 214.938H712.531C713.031 220.125 714.312 223.391 716.375 224.734C718.438 226.078 720.828 226.75 723.547 226.75C726.141 226.75 728.125 226.406 729.5 225.719C730.875 225.031 732.031 224.094 732.969 222.906C734.031 221.531 735.344 221.312 736.906 222.25L741.594 225.109C743.438 226.234 743.703 227.578 742.391 229.141C740.484 231.422 738.25 233.125 735.688 234.25C733.125 235.375 729.078 235.938 723.547 235.938C714.578 235.938 708.188 233.656 704.375 229.094C700.562 224.531 698.656 218.297 698.656 210.391ZM712.578 205.562H732.969C732.969 202.188 732.125 199.438 730.438 197.312C728.75 195.156 726.062 194.078 722.375 194.078C719.438 194.078 717.109 195.109 715.391 197.172C713.672 199.203 712.734 202 712.578 205.562Z" fill="black"/>
</svg>
